<svg viewBox="0 0 66 50" fill="none" xmlns="http://www.w3.org/2000/svg">
<path fill-rule="evenodd" clip-rule="evenodd" d="M63 0H3C1.61929 0 0.5 1.11929 0.5 2.5V45C0.5 47.7614 2.73858 50 5.5 50H60.5C63.2614 50 65.5 47.7614 65.5 45V2.5C65.5 1.11929 64.3807 0 63 0ZM33 26.6094L9.42813 5H56.5719L33 26.6094ZM23.8469 25L5.5 41.8156V8.18438L23.8469 25ZM27.5469 28.3906L31.2969 31.8438C32.2531 32.7215 33.7219 32.7215 34.6781 31.8438L38.4281 28.3906L56.5531 45H9.42813L27.5469 28.3906ZM42.1531 25L60.5 8.18125V41.8188L42.1531 25Z" fill="white"/>
</svg>
