<svg width="78" height="78" viewBox="0 0 78 78" fill="none" xmlns="http://www.w3.org/2000/svg">
<path fill-rule="evenodd" clip-rule="evenodd" d="M39 0C17.4609 0 0 17.4609 0 39C0 60.5391 17.4609 78 39 78C60.5391 78 78 60.5391 78 39C77.9773 17.4703 60.5297 0.0227356 39 0ZM42 71.8613V48H51C52.6569 48 54 46.6569 54 45C54 43.3431 52.6569 42 51 42H42V33C42 29.6863 44.6863 27 48 27H54C55.6569 27 57 25.6569 57 24C57 22.3431 55.6569 21 54 21H48C41.3726 21 36 26.3726 36 33V42H27C25.3431 42 24 43.3431 24 45C24 46.6569 25.3431 48 27 48H36V71.8613C18.4315 70.2575 5.23146 55.1196 6.03418 37.4963C6.8369 19.8731 21.3585 5.9979 39 5.9979C56.6415 5.9979 71.1631 19.8731 71.9658 37.4963C72.7685 55.1196 59.5685 70.2575 42 71.8613Z" fill="white"/>
</svg>
