<svg width="66" height="66" viewBox="0 0 66 66" fill="none" xmlns="http://www.w3.org/2000/svg">
<path fill-rule="evenodd" clip-rule="evenodd" d="M33 18C24.7157 18 18 24.7157 18 33C18 41.2843 24.7157 48 33 48C41.2843 48 48 41.2843 48 33C47.9914 24.7193 41.2807 18.0086 33 18ZM33 43C27.4772 43 23 38.5228 23 33C23 27.4772 27.4772 23 33 23C38.5228 23 43 27.4772 43 33C43 38.5228 38.5228 43 33 43ZM48 0.5H18C8.3393 0.510334 0.510334 8.3393 0.5 18V48C0.510334 57.6607 8.3393 65.4897 18 65.5H48C57.6607 65.4897 65.4897 57.6607 65.5 48V18C65.4897 8.3393 57.6607 0.510334 48 0.5ZM60.5 48C60.5 54.9036 54.9036 60.5 48 60.5H18C11.0964 60.5 5.5 54.9036 5.5 48V18C5.5 11.0964 11.0964 5.5 18 5.5H48C54.9036 5.5 60.5 11.0964 60.5 18V48ZM53 16.75C53 18.8211 51.3211 20.5 49.25 20.5C47.1789 20.5 45.5 18.8211 45.5 16.75C45.5 14.6789 47.1789 13 49.25 13C51.3211 13 53 14.6789 53 16.75Z" fill="white"/>
</svg>
