<svg width="17" height="22" viewBox="0 0 17 22" fill="none" xmlns="http://www.w3.org/2000/svg">
<path fill-rule="evenodd" clip-rule="evenodd" d="M8.5 5C6.42893 5 4.75 6.67893 4.75 8.75C4.75 10.8211 6.42893 12.5 8.5 12.5C10.5711 12.5 12.25 10.8211 12.25 8.75C12.25 6.67893 10.5711 5 8.5 5ZM8.5 11C7.25736 11 6.25 9.99264 6.25 8.75C6.25 7.50736 7.25736 6.5 8.5 6.5C9.74264 6.5 10.75 7.50736 10.75 8.75C10.75 9.99264 9.74264 11 8.5 11ZM8.5 0.5C3.94579 0.505166 0.255166 4.19579 0.25 8.75C0.25 11.6937 1.61031 14.8138 4.1875 17.7734C5.34552 19.1108 6.64886 20.3151 8.07344 21.3641C8.33177 21.545 8.67573 21.545 8.93406 21.3641C10.356 20.3147 11.6568 19.1104 12.8125 17.7734C15.3859 14.8138 16.75 11.6937 16.75 8.75C16.7448 4.19579 13.0542 0.505166 8.5 0.5ZM8.5 19.8125C6.95031 18.5938 1.75 14.1172 1.75 8.75C1.75 5.02208 4.77208 2 8.5 2C12.2279 2 15.25 5.02208 15.25 8.75C15.25 14.1153 10.0497 18.5938 8.5 19.8125Z" fill="white"/>
</svg>
