<svg width="20" height="19" viewBox="0 0 20 19" fill="none" xmlns="http://www.w3.org/2000/svg">
<path fill-rule="evenodd" clip-rule="evenodd" d="M18.3472 12.8556L13.9306 10.8766L13.9184 10.8709C13.4526 10.6717 12.9177 10.7211 12.4963 11.0022C12.4718 11.0183 12.4483 11.0359 12.4259 11.0547L10.1441 13C8.69844 12.2978 7.20594 10.8166 6.50375 9.38969L8.45187 7.07312C8.47062 7.04969 8.48844 7.02625 8.50531 7.00094C8.78032 6.5807 8.82677 6.05073 8.62906 5.58906V5.57781L6.64437 1.15375C6.38009 0.543904 5.746 0.180692 5.08625 0.26125C2.45833 0.607054 0.495249 2.84943 0.5 5.5C0.5 12.9438 6.55625 19 14 19C16.6506 19.0048 18.8929 17.0417 19.2388 14.4137C19.3195 13.7542 18.9567 13.1202 18.3472 12.8556ZM14 17.5C7.37558 17.4928 2.00723 12.1244 2 5.5C1.9927 3.60618 3.39195 2.00108 5.26906 1.75C5.26869 1.75374 5.26869 1.75751 5.26906 1.76125L7.23781 6.1675L5.3 8.48687C5.28033 8.50951 5.26246 8.53364 5.24656 8.55906C4.95961 8.99938 4.92405 9.55777 5.15281 10.0309C6.00219 11.7681 7.7525 13.5053 9.50844 14.3538C9.98515 14.5804 10.5459 14.5398 10.985 14.2469C11.0091 14.2307 11.0322 14.2131 11.0544 14.1944L13.3334 12.25L17.7397 14.2234C17.7397 14.2234 17.7472 14.2234 17.75 14.2234C17.502 16.1033 15.8962 17.5064 14 17.5Z" fill="white"/>
</svg>
