<svg width="68" height="68" viewBox="0 0 68 68" fill="none" xmlns="http://www.w3.org/2000/svg">
<path d="M67.9998 0.403198C67.7656 1.24069 67.4914 2.09852 67.0906 2.90609C64.7502 7.62214 62.3817 12.327 60.0199 17.0345C57.1799 22.6949 54.3361 28.3538 51.496 34.0142C48.9908 39.007 46.4926 44.0026 43.9835 48.9938C41.4586 54.0165 38.9202 59.0339 36.3973 64.0575C35.9667 64.9148 35.6169 65.8053 35.1672 66.6539C34.918 67.124 34.539 67.5391 34.2033 68C32.9815 66.5787 33.0364 65.215 33.8692 63.6846C35.6089 60.4873 37.2345 57.2394 38.8595 53.9933C41.5184 48.6817 44.1288 43.3507 46.781 38.0364C48.0519 35.4897 49.3876 32.9689 50.6649 30.4246C51.9571 27.8509 53.2194 25.2651 54.4765 22.6775C54.6143 22.3939 54.6317 22.0635 54.4525 21.6776C54.2478 21.9071 54.0432 22.1366 53.7948 22.4152C51.9066 21.6484 50.0325 20.8874 47.9823 20.0549C48.9803 18.0574 49.9572 16.1024 50.9359 14.1436C51.4405 14.1436 51.9516 14.1436 52.5568 14.1436C51.7396 15.8006 50.9565 17.3883 50.1692 18.9848C50.8834 19.4642 51.0532 19.4227 51.4366 18.6439C51.903 17.6966 52.3708 16.7499 52.8543 15.7697C53.8525 16.2758 54.207 16.7702 53.5545 17.6854C53.0375 18.4105 52.7657 19.2754 52.3765 20.0962C53.5375 20.5312 53.6498 19.6557 53.9618 19.0427C54.5518 17.8835 55.1331 16.7208 55.7337 15.5284C56.7827 16.0632 57.09 16.5494 56.4667 17.4749C55.796 18.4708 55.378 19.603 54.7841 20.8089C55.8392 20.3908 60.7395 11.021 60.4293 9.7019C59.6448 11.1584 58.8604 12.6149 58.0583 14.1042C56.3009 13.3791 54.5964 12.7094 52.9375 11.9589C52.6555 11.8313 52.3798 11.3281 52.4329 11.0491C52.538 10.4981 52.8843 10.2346 53.641 10.5811C54.8451 11.1324 56.1352 11.5333 57.4673 12.0269C58.3286 10.3503 59.1502 8.75088 59.9915 7.11325C61.0858 7.66716 61.1976 8.44005 60.5609 9.41111C60.6749 9.43966 60.7889 9.46821 60.9029 9.49676C61.2611 9.01711 61.7038 8.57122 61.9626 8.05193C63.0559 5.85827 63.9604 3.57758 65.2367 1.47598C65.6073 0.865778 66.9851 0.745296 67.9998 0.403198Z" fill="white"/>
<path d="M44.9706 26.0334C45.4099 25.0554 45.9118 24.183 46.2624 23.2644C46.6365 22.2841 47.385 22.2423 48.4013 22.4376C47.5684 24.0885 46.7436 25.7232 45.8907 27.4137C46.1806 27.5573 46.4391 27.6852 46.749 27.8386C47.4039 26.5615 48.0435 25.3144 48.6946 24.0448C49.8111 24.5349 50.0676 25.0814 49.3806 26.0089C48.8719 26.6955 48.5986 27.5216 48.2134 28.2997C49.0896 29.0705 49.3106 28.3478 49.5843 27.7997C50.245 26.4767 50.8921 25.1483 51.6143 23.6804C52.1227 24.1101 52.4594 24.3947 52.8034 24.6854C51.7693 26.7021 50.7657 28.6594 49.7076 30.723C47.6831 29.9083 45.7165 29.1169 43.7068 28.3081C44.1449 27.5467 44.5558 26.8327 44.9706 26.0334Z" fill="white"/>
<path d="M41.7523 32.2914C42.1968 31.1422 43.1626 30.4885 44.2625 30.6303C45.7967 30.828 46.0051 31.8733 45.992 33.131C46.9758 32.7494 47.8479 32.4112 48.8237 32.0327C48.6676 33.5384 47.6796 34.2137 46.4036 34.5177C44.8997 34.8761 44.2983 35.7996 44.0144 37.1404C44.622 37.3823 45.2541 37.634 45.9608 37.9154C45.764 38.3858 45.5659 38.859 45.3282 39.4272C43.3086 38.6211 41.3583 37.8427 39.2891 37.0168C40.1023 35.445 40.9003 33.9025 41.7523 32.2914ZM43.526 34.4405C43.829 33.8325 44.132 33.2245 44.4389 32.6088C43.6436 32.0844 43.3054 32.5545 43.0349 33.0455C42.5744 33.8814 42.1236 34.7253 41.7524 35.5944C41.6687 35.7904 41.9293 36.1041 42.0314 36.3636C42.2838 36.2149 42.6169 36.1144 42.7715 35.9073C43.0703 35.5068 43.2684 35.0462 43.526 34.4405Z" fill="white"/>
<path d="M18.1864 36.1421C15.2282 30.2817 12.3281 24.4908 9.4069 18.7084C7.76894 15.4661 6.07881 12.2449 4.44419 9.00124C2.9556 6.04736 1.51022 3.07605 0 0.0197303C0.243468 0.0197303 0.47098 -0.0290835 0.659719 0.0268486C5.76401 1.53947 10.8692 3.05004 15.9565 4.60743C16.387 4.73922 16.8433 5.13539 17.0341 5.51165C19.3531 10.0834 21.6152 14.6782 23.9115 19.2592C25.4905 22.4095 27.1111 25.543 28.6924 28.6924C30.3533 32.0001 31.9878 35.3185 33.6405 38.6295C33.7504 38.8495 33.9168 39.0469 34.1427 39.3821C34.4548 39.0728 34.8014 38.8571 34.9511 38.5615C36.6886 35.1317 38.4031 31.6926 40.1105 28.2507C42.987 22.4521 45.8519 16.6489 48.7263 10.8494C49.5 9.28844 50.3084 7.74102 51.065 6.17351C51.412 5.45476 51.9294 4.98618 52.805 4.81251C53.4065 4.6932 53.9864 4.4866 54.9528 4.21188C54.4002 5.37019 53.9687 6.31285 53.504 7.24224C51.1483 11.9536 48.7883 16.6633 46.4215 21.3703C43.8953 26.3942 41.3553 31.4126 38.83 36.4369C36.6562 40.762 34.4989 45.0937 32.326 49.4191C31.2877 51.486 30.235 53.5472 29.1759 55.6056C29.0048 55.938 28.7662 56.2426 28.4612 56.7093C27.1783 54.2141 25.9814 51.92 24.8164 49.6129C22.6181 45.2595 20.4375 40.899 18.2559 36.5389C18.2098 36.4468 18.2406 36.3238 18.1864 36.1421Z" fill="white"/>
</svg>
